<?xml version="1.0" standalone="no"?>
<svg viewBox="0 0 200 200" xmlns="http://www.w3.org/2000/svg">
  <path fill="#185ADB" d="M42,-73.5C52.1,-66.8,56.5,-51,59.6,-37.2C62.7,-23.4,64.6,-11.7,68.1,2C71.5,15.7,76.6,31.4,70.8,40.7C65.1,49.9,48.6,52.7,35,56.3C21.4,59.9,10.7,64.2,-2.3,68.2C-15.3,72.2,-30.7,76,-43.1,71.7C-55.4,67.4,-64.9,55.2,-72,41.9C-79.1,28.6,-84,14.3,-81.1,1.7C-78.1,-10.9,-67.5,-21.8,-58.9,-32.7C-50.3,-43.5,-43.9,-54.2,-34.4,-61.3C-25,-68.3,-12.5,-71.8,1.7,-74.8C15.9,-77.8,31.8,-80.2,42,-73.5Z" transform="translate(100 100)" />
</svg>
